Source: 720p TS XviD-*THC*/MiNiSTRY - Thanks Nice Work

^^^ Nice source guys, colors better all around compared to the russian source so all i did was just resized, increased brightness, contrast, lowered sat and gamma and added slight sharpen.
 
http://www.imdb.com/title/tt1623205/

A small-time magician arrives in an enchanted land and is forced to decide if he will be a good man or a great one.

General
Complete name                            : Oz the Great and Powerful 2013 HDTS x264 AAC-OFFLiNE.mp4
Format                                   : MPEG-4
Format profile                           : Base Media
Codec ID                                 : isom
File size                                : 1.44 GiB
Duration                                 : 2h 4mn
Overall bit rate mode                    : Variable
Overall bit rate                         : 1 657 Kbps
Encoded date                             : UTC 2013-03-15 21:27:19
Tagged date                              : UTC 2013-03-15 21:27:19

Video
ID                                       : 1
Format                                   : AVC
Format/Info                              : Advanced Video Codec
Format profile                           : High@L4.1
Format settings, CABAC                   : Yes
Format settings, ReFrames                : 3 frames
Codec ID                                 : avc1
Codec ID/Info                            : Advanced Video Coding
Duration                                 : 2h 4mn
Bit rate mode                            : Variable
Bit rate                                 : 1 530 Kbps
Maximum bit rate                         : 40.0 Mbps
Width                                    : 720 pixels
Height                                   : 304 pixels
Display aspect ratio                     : 2.35:1
Frame rate mode                          : Constant
Frame rate                               : 25.000 fps
Color space                              : YUV
Chroma subsampling                       : 4:2:0
Bit depth                                : 8 bits
Scan type                                : Progressive
Bits/(Pixel*Frame)                       : 0.280
Stream size                              : 1.33 GiB (92%)
Writing library                          : x264 core 130 r2273 b3065e6

Audio
ID                                       : 2
Format                                   : AAC
Format/Info                              : Advanced Audio Codec
Format profile                           : LC
Codec ID                                 : 40
Duration                                 : 2h 4mn
Bit rate mode                            : Variable
Bit rate                                 : 123 Kbps
Maximum bit rate                         : 152 Kbps
Channel(s)                               : 2 channels
Channel positions                        : Front: L R
Sampling rate                            : 48.0 KHz
Compression mode                         : Lossy
Stream size                              : 110 MiB (7%)
Language                                 : English
Encoded date                             : UTC 2013-03-15 03:55:08
Tagged date                              : UTC 2013-03-15 21:28:05